<svg width="120" height="120" viewBox="0 0 120 120" xmlns="http://www.w3.org/2000/svg">
  <defs>
    <pattern id="card-suits" x="0" y="0" width="120" height="120" patternUnits="userSpaceOnUse">
      <!-- Club -->
      <path d="M20 20c0-2.5 1.2-4.8 3.2-6.2 1-0.7 2.2-1.2 3.5-1.3 1.3-0.1 2.7 0.1 3.9 0.8 1.2 0.7 2.2 1.8 2.7 3 0.6 1.3 0.7 2.7 0.4 4-0.3 1.3-1.1 2.5-2.1 3.3-1.1 0.9-2.4 1.4-3.8 1.5-1.4 0-2.7-0.3-3.9-1s-2.1-1.8-2.6-3c-0.6-1.2-0.7-2.6-0.4-3.9 0.3-1.3 1-2.4 2-3.3" fill="rgba(255,255,255,0.04)"/>
      <!-- Diamond -->
      <path d="M80 20l-8 15 8 15 8-15z" fill="rgba(255,255,255,0.05)"/>
      <!-- Heart -->
      <path d="M20 80c0 5-4 9-9 9s-9-4-9-9c0-3.1 1.6-5.9 4-7.5 1.3-0.9 2.9-1.5 4.5-1.5 0.5 0 0.9 0 1.4 0.1 4.1 0.7 7.1 4.3 7.1 8.5 0 0.1 0 0.2 0 0.4M40 90c0-5 4-9 9-9s9 4 9 9c0 3.1-1.6 5.9-4 7.5-1.3 0.9-2.9 1.5-4.5 1.5-0.5 0-0.9 0-1.4-0.1-4.1-0.7-7.1-4.3-7.1-8.5 0-0.1 0-0.2 0-0.4" fill="rgba(255,255,255,0.04)"/>
      <!-- Spade -->
      <path d="M80 80l-8-15 16 0z" fill="rgba(255,255,255,0.05)"/>
    </pattern>
  </defs>
  
  <rect x="0" y="0" width="120" height="120" fill="url(#card-suits)"/>
</svg>
